solid OpenSCAD_Model
  facet normal -1 0 0
    outer loop
      vertex 0 0 0
      vertex 0 0 9
      vertex 0 2 0
    endloop
  endfacet
  facet normal -1 0 0
    outer loop
      vertex 0 2 0
      vertex 0 0 9
      vertex 0 2 9
    endloop
  endfacet
  facet normal 0 -1 0
    outer loop
      vertex 0 0 9
      vertex 0 0 0
      vertex 20 0 0
    endloop
  endfacet
  facet normal 0 -1 0
    outer loop
      vertex 20 0 9
      vertex 0 0 9
      vertex 20 0 0
    endloop
  endfacet
  facet normal 0 0 -1
    outer loop
      vertex 0 0 0
      vertex 0 2 0
      vertex 20 0 0
    endloop
  endfacet
  facet normal 0 0 -1
    outer loop
      vertex 20 0 0
      vertex 0 2 0
      vertex 2.39324 2 0
    endloop
  endfacet
  facet normal 0 0 -1
    outer loop
      vertex 3.75 2 0
      vertex 2.39324 2 0
      vertex 2.39324 2.44084 0
    endloop
  endfacet
  facet normal 0 0 -1
    outer loop
      vertex 20 2 0
      vertex 20 0.107241 0
      vertex 3.75 2 0
    endloop
  endfacet
  facet normal 0 0 -1
    outer loop
      vertex 20 0 0
      vertex 2.39324 2 0
      vertex 3.75 2 0
    endloop
  endfacet
  facet normal 0 0 -1
    outer loop
      vertex 20 0.107241 0
      vertex 20 0 0
      vertex 3.75 2 0
    endloop
  endfacet
  facet normal 0 0 -1
    outer loop
      vertex 20 2 0
      vertex 20 2.22402 0
      vertex 20.4635 2.07341 0
    endloop
  endfacet
  facet normal 0 0 -1
    outer loop
      vertex 20 0.107241 0
      vertex 21.5 3.5 0
      vertex 22.9444 5.39224 0
    endloop
  endfacet
  facet normal 0 0 -1
    outer loop
      vertex 20 0.107241 0
      vertex 20.4635 2.07341 0
      vertex 21.5 3.5 0
    endloop
  endfacet
  facet normal 0 0 -1
    outer loop
      vertex 20.4635 4.92658 0
      vertex 20 6.89276 0
      vertex 21.5 3.5 0
    endloop
  endfacet
  facet normal 0 0 -1
    outer loop
      vertex 21.5 3.5 0
      vertex 20 6.89276 0
      vertex 21.454 6.68371 0
    endloop
  endfacet
  facet normal 0 0 -1
    outer loop
      vertex 21.5 3.5 0
      vertex 21.454 6.68371 0
      vertex 22.9444 5.39224 0
    endloop
  endfacet
  facet normal 0 0 -1
    outer loop
      vertex 20 2 0
      vertex 20.4635 2.07341 0
      vertex 20 0.107241 0
    endloop
  endfacet
  facet normal 0 0 -1
    outer loop
      vertex 20 6.89276 0
      vertex 20.4635 4.92658 0
      vertex 20 4.77598 0
    endloop
  endfacet
  facet normal 0 0 -1
    outer loop
      vertex 3.75 2 0
      vertex 2.39324 2.44084 0
      vertex 3.23176 2.71329 0
    endloop
  endfacet
  facet normal 0 0 -1
    outer loop
      vertex 20 0.107241 0
      vertex 22.9444 5.39224 0
      vertex 23.5 3.5 0
    endloop
  endfacet
  facet normal 0 0 -1
    outer loop
      vertex 20 0.107241 0
      vertex 23.5 3.5 0
      vertex 22.9444 1.60776 0
    endloop
  endfacet
  facet normal 0 0 -1
    outer loop
      vertex 20 0.107241 0
      vertex 22.9444 1.60776 0
      vertex 21.454 0.316288 0
    endloop
  endfacet
  facet normal 0 1 0
    outer loop
      vertex 0 2 0
      vertex 0 2 9
      vertex 2.39324 2 0
    endloop
  endfacet
  facet normal 0 1 0
    outer loop
      vertex 2.39324 2 0
      vertex 0 2 9
      vertex 2.39324 2 9
    endloop
  endfacet
  facet normal 0 0 1
    outer loop
      vertex 0 2 9
      vertex 0 0 9
      vertex 20 0 9
    endloop
  endfacet
  facet normal 0 0 1
    outer loop
      vertex 21.454 0.316288 9
      vertex 0 2 9
      vertex 20 0.107241 9
    endloop
  endfacet
  facet normal 0 0 1
    outer loop
      vertex 20 0.107241 9
      vertex 0 2 9
      vertex 20 0 9
    endloop
  endfacet
  facet normal 0 0 1
    outer loop
      vertex 22.9444 1.60776 9
      vertex 0 2 9
      vertex 21.454 0.316288 9
    endloop
  endfacet
  facet normal 0 0 1
    outer loop
      vertex 20 2 9
      vertex 3.75 2 9
      vertex 22.9444 1.60776 9
    endloop
  endfacet
  facet normal 0 0 1
    outer loop
      vertex 20.4635 4.92658 9
      vertex 21.5 3.5 9
      vertex 23.5 3.5 9
    endloop
  endfacet
  facet normal 0 0 1
    outer loop
      vertex 20 5 9
      vertex 20 4.77598 9
      vertex 20.4635 4.92658 9
    endloop
  endfacet
  facet normal 0 0 1
    outer loop
      vertex 21.454 6.68371 9
      vertex 20 5 9
      vertex 22.9444 5.39224 9
    endloop
  endfacet
  facet normal 0 0 1
    outer loop
      vertex 21.5 3.5 9
      vertex 20.4635 2.07341 9
      vertex 23.5 3.5 9
    endloop
  endfacet
  facet normal 0 0 1
    outer loop
      vertex 20.4635 4.92658 9
      vertex 23.5 3.5 9
      vertex 22.9444 5.39224 9
    endloop
  endfacet
  facet normal 0 0 1
    outer loop
      vertex 23.5 3.5 9
      vertex 20.4635 2.07341 9
      vertex 22.9444 1.60776 9
    endloop
  endfacet
  facet normal 0 0 1
    outer loop
      vertex 20.4635 2.07341 9
      vertex 20 2 9
      vertex 22.9444 1.60776 9
    endloop
  endfacet
  facet normal 0 0 1
    outer loop
      vertex 3.75 2 9
      vertex 2.39324 2 9
      vertex 22.9444 1.60776 9
    endloop
  endfacet
  facet normal 0 0 1
    outer loop
      vertex 2.39324 2 9
      vertex 0 2 9
      vertex 22.9444 1.60776 9
    endloop
  endfacet
  facet normal 0 0 1
    outer loop
      vertex 20 2.22402 9
      vertex 20 2 9
      vertex 20.4635 2.07341 9
    endloop
  endfacet
  facet normal 0 0 1
    outer loop
      vertex 20 5 9
      vertex 20.4635 4.92658 9
      vertex 22.9444 5.39224 9
    endloop
  endfacet
  facet normal 0 0 1
    outer loop
      vertex 20 6.89276 9
      vertex 20 5 9
      vertex 21.454 6.68371 9
    endloop
  endfacet
  facet normal 0 0 1
    outer loop
      vertex 3.75 2 9
      vertex 2.39324 2.44084 9
      vertex 2.39324 2 9
    endloop
  endfacet
  facet normal 0 0 1
    outer loop
      vertex 3.75 2 9
      vertex 3.23176 2.71329 9
      vertex 2.39324 2.44084 9
    endloop
  endfacet
  facet normal 1 0 0
    outer loop
      vertex 20 0 9
      vertex 20 0 0
      vertex 20 0.107241 0
    endloop
  endfacet
  facet normal 1 0 0
    outer loop
      vertex 20 0.107241 9
      vertex 20 0 9
      vertex 20 0.107241 0
    endloop
  endfacet
  facet normal 0.142315 -0.989821 0
    outer loop
      vertex 20 0.107241 9
      vertex 20 0.107241 0
      vertex 21.454 0.316288 0
    endloop
  endfacet
  facet normal 0.142315 -0.989821 0
    outer loop
      vertex 21.454 0.316288 9
      vertex 20 0.107241 9
      vertex 21.454 0.316288 0
    endloop
  endfacet
  facet normal 0.654861 -0.755749 0
    outer loop
      vertex 21.454 0.316288 9
      vertex 21.454 0.316288 0
      vertex 22.9444 1.60776 0
    endloop
  endfacet
  facet normal 0.654861 -0.755749 0
    outer loop
      vertex 22.9444 1.60776 9
      vertex 21.454 0.316288 9
      vertex 22.9444 1.60776 0
    endloop
  endfacet
  facet normal 0.959493 -0.281733 0
    outer loop
      vertex 22.9444 1.60776 9
      vertex 22.9444 1.60776 0
      vertex 23.5 3.5 0
    endloop
  endfacet
  facet normal 0.959493 -0.281733 0
    outer loop
      vertex 23.5 3.5 9
      vertex 22.9444 1.60776 9
      vertex 23.5 3.5 0
    endloop
  endfacet
  facet normal 0.959493 0.281733 0
    outer loop
      vertex 23.5 3.5 0
      vertex 22.9444 5.39224 0
      vertex 22.9444 5.39224 9
    endloop
  endfacet
  facet normal 0.959493 0.281733 0
    outer loop
      vertex 23.5 3.5 9
      vertex 23.5 3.5 0
      vertex 22.9444 5.39224 9
    endloop
  endfacet
  facet normal 0.654861 0.755749 0
    outer loop
      vertex 21.454 6.68371 0
      vertex 21.454 6.68371 9
      vertex 22.9444 5.39224 0
    endloop
  endfacet
  facet normal 0.654861 0.755749 0
    outer loop
      vertex 22.9444 5.39224 0
      vertex 21.454 6.68371 9
      vertex 22.9444 5.39224 9
    endloop
  endfacet
  facet normal 0.142315 0.989821 0
    outer loop
      vertex 20 6.89276 0
      vertex 20 6.89276 1.31328e-017
      vertex 21.454 6.68371 0
    endloop
  endfacet
  facet normal 0.142315 0.989821 0
    outer loop
      vertex 21.454 6.68371 0
      vertex 20 6.89276 1.31328e-017
      vertex 20 6.89276 9
    endloop
  endfacet
  facet normal 0.142315 0.989821 0
    outer loop
      vertex 21.454 6.68371 0
      vertex 20 6.89276 9
      vertex 21.454 6.68371 9
    endloop
  endfacet
  facet normal -1 0 0
    outer loop
      vertex 20 5 9
      vertex 20 5 2.44921e-016
      vertex 20 4.77598 9
    endloop
  endfacet
  facet normal -1 0 0
    outer loop
      vertex 20 6.89276 0
      vertex 20 5 2.44921e-016
      vertex 20 6.89276 1.31328e-017
    endloop
  endfacet
  facet normal -1 0 0
    outer loop
      vertex 20 4.77598 0
      vertex 20 5 2.44921e-016
      vertex 20 6.89276 0
    endloop
  endfacet
  facet normal -1 0 0
    outer loop
      vertex 20 4.77598 9
      vertex 20 5 2.44921e-016
      vertex 20 4.77598 0
    endloop
  endfacet
  facet normal 0.309017 -0.951056 0
    outer loop
      vertex 20.4635 4.92658 0
      vertex 20.4635 4.92658 9
      vertex 20 4.77598 9
    endloop
  endfacet
  facet normal 0.309017 -0.951056 0
    outer loop
      vertex 20 4.77598 0
      vertex 20.4635 4.92658 0
      vertex 20 4.77598 9
    endloop
  endfacet
  facet normal -0.809017 -0.587785 0
    outer loop
      vertex 21.5 3.5 9
      vertex 20.4635 4.92658 9
      vertex 21.5 3.5 0
    endloop
  endfacet
  facet normal -0.809017 -0.587785 0
    outer loop
      vertex 21.5 3.5 0
      vertex 20.4635 4.92658 9
      vertex 20.4635 4.92658 0
    endloop
  endfacet
  facet normal -0.809017 0.587785 0
    outer loop
      vertex 21.5 3.5 9
      vertex 21.5 3.5 0
      vertex 20.4635 2.07341 9
    endloop
  endfacet
  facet normal -0.809017 0.587785 0
    outer loop
      vertex 20.4635 2.07341 9
      vertex 21.5 3.5 0
      vertex 20.4635 2.07341 0
    endloop
  endfacet
  facet normal 0.309017 0.951056 0
    outer loop
      vertex 20.4635 2.07341 9
      vertex 20.4635 2.07341 0
      vertex 20 2.22402 9
    endloop
  endfacet
  facet normal 0.309017 0.951056 0
    outer loop
      vertex 20 2.22402 9
      vertex 20.4635 2.07341 0
      vertex 20 2.22402 0
    endloop
  endfacet
  facet normal -1 0 0
    outer loop
      vertex 20 2.22402 9
      vertex 20 2.22402 0
      vertex 20 2 9
    endloop
  endfacet
  facet normal -1 0 0
    outer loop
      vertex 20 2 9
      vertex 20 2.22402 0
      vertex 20 2 0
    endloop
  endfacet
  facet normal 0 1 0
    outer loop
      vertex 3.75 2 0
      vertex 3.75 2 9
      vertex 20 2 0
    endloop
  endfacet
  facet normal 0 1 0
    outer loop
      vertex 20 2 0
      vertex 3.75 2 9
      vertex 20 2 9
    endloop
  endfacet
  facet normal 0.809017 0.587785 0
    outer loop
      vertex 3.75 2 0
      vertex 3.23176 2.71329 0
      vertex 3.23176 2.71329 9
    endloop
  endfacet
  facet normal 0.809017 0.587785 0
    outer loop
      vertex 3.75 2 9
      vertex 3.75 2 0
      vertex 3.23176 2.71329 9
    endloop
  endfacet
  facet normal -0.309016 0.951057 0
    outer loop
      vertex 2.39324 2.44084 0
      vertex 2.39324 2.44084 9
      vertex 3.23176 2.71329 0
    endloop
  endfacet
  facet normal -0.309016 0.951057 0
    outer loop
      vertex 3.23176 2.71329 0
      vertex 2.39324 2.44084 9
      vertex 3.23176 2.71329 9
    endloop
  endfacet
  facet normal -1 0 0
    outer loop
      vertex 2.39324 2 0
      vertex 2.39324 2 9
      vertex 2.39324 2.44084 0
    endloop
  endfacet
  facet normal -1 0 0
    outer loop
      vertex 2.39324 2.44084 0
      vertex 2.39324 2 9
      vertex 2.39324 2.44084 9
    endloop
  endfacet
  facet normal 0 -1 1.22461e-016
    outer loop
      vertex 3.75 5 9
      vertex 3.75 5 2.44921e-016
      vertex 20 5 2.44921e-016
    endloop
  endfacet
  facet normal 0 -1 1.22461e-016
    outer loop
      vertex 20 5 9
      vertex 3.75 5 9
      vertex 20 5 2.44921e-016
    endloop
  endfacet
  facet normal 1 0 0
    outer loop
      vertex 20 7 9
      vertex 20 5 9
      vertex 20 6.89276 9
    endloop
  endfacet
  facet normal 1 0 0
    outer loop
      vertex 20 6.89276 1.31328e-017
      vertex 20 7 0
      vertex 20 6.89276 9
    endloop
  endfacet
  facet normal 1 0 0
    outer loop
      vertex 20 7 0
      vertex 20 7 9
      vertex 20 6.89276 9
    endloop
  endfacet
  facet normal 0 -1.22461e-016 -1
    outer loop
      vertex 0 5 2.44921e-016
      vertex 0 7 0
      vertex 2.39324 5 2.44921e-016
    endloop
  endfacet
  facet normal 0 -1.22461e-016 -1
    outer loop
      vertex 2.39324 5 2.44921e-016
      vertex 0 7 0
      vertex 20 7 0
    endloop
  endfacet
  facet normal 0 -1.22461e-016 -1
    outer loop
      vertex 2.39324 5 2.44921e-016
      vertex 20 7 0
      vertex 20 6.89276 1.31328e-017
    endloop
  endfacet
  facet normal 0 -1.22461e-016 -1
    outer loop
      vertex 3.75 5 2.44921e-016
      vertex 20 6.89276 1.31328e-017
      vertex 20 5 2.44921e-016
    endloop
  endfacet
  facet normal 0 -1.22461e-016 -1
    outer loop
      vertex 2.39324 5 2.44921e-016
      vertex 20 6.89276 1.31328e-017
      vertex 3.75 5 2.44921e-016
    endloop
  endfacet
  facet normal 0 -1.22461e-016 -1
    outer loop
      vertex 3.75 5 2.44921e-016
      vertex 3.23176 4.28671 3.32271e-016
      vertex 2.39324 5 2.44921e-016
    endloop
  endfacet
  facet normal 0 -1.22461e-016 -1
    outer loop
      vertex 2.39324 5 2.44921e-016
      vertex 3.23176 4.28671 3.32271e-016
      vertex 2.39324 4.55916 2.98907e-016
    endloop
  endfacet
  facet normal 0 1.22461e-016 1
    outer loop
      vertex 2.39324 4.55916 9
      vertex 3.23176 4.28671 9
      vertex 2.39324 5 9
    endloop
  endfacet
  facet normal 0 1.22461e-016 1
    outer loop
      vertex 0 7 9
      vertex 0 5 9
      vertex 2.39324 5 9
    endloop
  endfacet
  facet normal 0 1.22461e-016 1
    outer loop
      vertex 3.75 5 9
      vertex 0 7 9
      vertex 2.39324 5 9
    endloop
  endfacet
  facet normal 0 1.22461e-016 1
    outer loop
      vertex 3.23176 4.28671 9
      vertex 3.75 5 9
      vertex 2.39324 5 9
    endloop
  endfacet
  facet normal 0 1.22461e-016 1
    outer loop
      vertex 3.75 5 9
      vertex 20 5 9
      vertex 0 7 9
    endloop
  endfacet
  facet normal 0 1.22461e-016 1
    outer loop
      vertex 20 5 9
      vertex 20 7 9
      vertex 0 7 9
    endloop
  endfacet
  facet normal 0.809017 -0.587785 7.19806e-017
    outer loop
      vertex 3.23176 4.28671 9
      vertex 3.23176 4.28671 3.32271e-016
      vertex 3.75 5 2.44921e-016
    endloop
  endfacet
  facet normal 0.809017 -0.587785 7.19806e-017
    outer loop
      vertex 3.75 5 9
      vertex 3.23176 4.28671 9
      vertex 3.75 5 2.44921e-016
    endloop
  endfacet
  facet normal 0 1 -1.22461e-016
    outer loop
      vertex 0 7 0
      vertex 0 7 9
      vertex 20 7 0
    endloop
  endfacet
  facet normal 0 1 -1.22461e-016
    outer loop
      vertex 20 7 0
      vertex 0 7 9
      vertex 20 7 9
    endloop
  endfacet
  facet normal 0 -1 1.22461e-016
    outer loop
      vertex 0 5 9
      vertex 0 5 2.44921e-016
      vertex 2.39324 5 2.44921e-016
    endloop
  endfacet
  facet normal 0 -1 1.22461e-016
    outer loop
      vertex 2.39324 5 9
      vertex 0 5 9
      vertex 2.39324 5 2.44921e-016
    endloop
  endfacet
  facet normal -1 0 0
    outer loop
      vertex 2.39324 4.55916 2.98907e-016
      vertex 2.39324 4.55916 9
      vertex 2.39324 5 2.44921e-016
    endloop
  endfacet
  facet normal -1 0 0
    outer loop
      vertex 2.39324 5 2.44921e-016
      vertex 2.39324 4.55916 9
      vertex 2.39324 5 9
    endloop
  endfacet
  facet normal -0.309016 -0.951057 1.16467e-016
    outer loop
      vertex 2.39324 4.55916 9
      vertex 2.39324 4.55916 2.98907e-016
      vertex 3.23176 4.28671 3.32271e-016
    endloop
  endfacet
  facet normal -0.309016 -0.951057 1.16467e-016
    outer loop
      vertex 3.23176 4.28671 9
      vertex 2.39324 4.55916 9
      vertex 3.23176 4.28671 3.32271e-016
    endloop
  endfacet
  facet normal -1 0 0
    outer loop
      vertex 0 5 2.44921e-016
      vertex 0 5 9
      vertex 0 7 0
    endloop
  endfacet
  facet normal -1 0 0
    outer loop
      vertex 0 7 0
      vertex 0 5 9
      vertex 0 7 9
    endloop
  endfacet
endsolid OpenSCAD_Model
